<svg width="14" height="16" viewBox="0 0 14 16" fill="none" xmlns="http://www.w3.org/2000/svg">
    <path d="M6.99991 11.75C9.74641 11.75 12.1487 12.9312 13.4552 14.6937L12.0737 15.347C11.0102 14.087 9.13516 13.25 6.99991 13.25C4.86466 13.25 2.98966 14.087 1.92616 15.347L0.54541 14.693C1.85191 12.9305 4.25341 11.75 6.99991 11.75ZM6.99991 0.5C7.99447 0.5 8.9483 0.895088 9.65156 1.59835C10.3548 2.30161 10.7499 3.25544 10.7499 4.25V6.5C10.7499 7.46635 10.3768 8.39537 9.70842 9.09333C9.04008 9.7913 8.1281 10.2043 7.16266 10.2463L6.99991 10.25C6.00535 10.25 5.05152 9.85491 4.34826 9.15165C3.645 8.44839 3.24991 7.49456 3.24991 6.5V4.25C3.24997 3.28365 3.62307 2.35463 4.2914 1.65667C4.95974 0.958705 5.87172 0.54569 6.83716 0.50375L6.99991 0.5ZM6.99991 2C6.426 1.99997 5.87377 2.21924 5.45621 2.61296C5.03865 3.00668 4.78733 3.54508 4.75366 4.118L4.74991 4.25V6.5C4.74935 7.08568 4.97717 7.6485 5.38499 8.06886C5.7928 8.48923 6.34846 8.73401 6.93388 8.7512C7.51931 8.76839 8.08837 8.55662 8.52014 8.1609C8.95191 7.76519 9.21236 7.2167 9.24616 6.632L9.24991 6.5V4.25C9.24991 3.65326 9.01286 3.08097 8.5909 2.65901C8.16894 2.23705 7.59665 2 6.99991 2Z" fill="currentColor"/>
</svg>