<svg width="107" height="27" viewBox="0 0 107 27" fill="#525866" xmlns="http://www.w3.org/2000/svg">
    <path d="M0 0.745566V3.79561C0 4.20228 0.32385 4.54117 0.71247 4.54117H8.74395C10.1041 4.47339 11.4643 4.81229 12.6949 5.49008C13.7312 6.16786 14.638 7.11676 15.0914 8.269C15.6743 9.76013 15.9982 11.319 15.9334 12.9457C15.9982 14.5724 15.6743 16.1991 15.0914 17.6902C14.5732 18.8425 13.7312 19.8592 12.6949 20.5369C11.4643 21.2147 10.1041 21.5536 8.74395 21.4859H5.24637C4.85775 21.4859 4.5339 21.147 4.5339 20.7403C4.5339 20.6725 4.5339 20.6725 4.5339 20.6047L5.69976 12.8102C5.76453 12.4035 5.50545 11.9968 5.11683 11.9291C5.05206 11.9291 5.05206 11.9291 4.98729 11.9291H0.71247C0.32385 11.9291 0 12.2679 0 12.6746V25.2137C0 25.6204 0.32385 25.9592 0.71247 25.9592H9.19734C11.3995 26.027 13.6017 25.4848 15.5448 24.4003C17.2936 23.3837 18.7185 21.757 19.6253 19.8592C20.5969 17.6902 21.115 15.2502 21.0502 12.8102C21.115 10.3701 20.6616 7.99789 19.6253 5.82897L19.431 5.55785C19.2367 5.21896 19.3662 4.74451 19.7548 4.54117C19.8844 4.47339 19.9492 4.47339 20.0787 4.47339H30.5714C30.9601 4.47339 31.2839 4.81229 31.2839 5.21896C31.2839 5.28674 31.2839 5.35452 31.2191 5.49008L24.224 25.0103C24.0944 25.417 24.2887 25.8237 24.6126 25.9592C24.6774 25.9592 24.7421 26.027 24.8717 26.027H29.3408C29.6646 26.027 29.9237 25.8237 30.0533 25.4848L37.6961 1.01668C37.8257 0.610008 37.6314 0.203336 37.2427 0.0677787C37.1132 0 37.0484 0 36.9837 0H0.71247C0.32385 0 0 0.338894 0 0.745566Z" />
    <path d="M57.5155 0.474329L52.7225 12.9456C52.593 13.3523 52.1396 13.4878 51.751 13.3523C51.5566 13.2845 51.4271 13.1489 51.3623 12.9456L46.6341 0.474329C46.5046 0.203214 46.2455 -0.00012207 45.9864 -0.00012207H42.165C41.8411 -0.00012207 41.5821 0.203214 41.4525 0.542108L33.8744 25.078C33.7449 25.4847 33.9392 25.8913 34.3278 26.0269C34.3926 26.0269 34.4574 26.0947 34.5221 26.0947H39.3799C39.7037 26.0947 40.0276 25.8236 40.0924 25.4847L43.6547 8.47222C43.7195 8.06554 44.1081 7.79443 44.4967 7.86221C44.7558 7.92999 44.9501 8.06554 45.0149 8.33666L51.3623 24.9424C51.4919 25.3491 51.9453 25.5525 52.2691 25.3491C52.4634 25.2813 52.593 25.1458 52.6577 24.9424L59.0052 8.33666C59.1347 7.92999 59.5881 7.72665 59.912 7.92999C60.1063 7.99777 60.3006 8.2011 60.3654 8.47222L63.9277 25.4847C63.9925 25.8236 64.3163 26.0947 64.6402 26.0947H69.4979C69.8865 26.0947 70.2104 25.7558 70.2104 25.2813C70.2104 25.2136 70.2104 25.1458 70.2104 25.078L62.5675 0.542108C62.5028 0.203214 62.2437 -0.00012207 61.9198 -0.00012207H58.1632C57.8393 -0.00012207 57.5803 0.203214 57.5155 0.474329Z" />
    <path d="M94.3697 5.48995C95.5356 4.81217 96.8958 4.47327 98.2559 4.54105H106.287C106.676 4.54105 107 4.20216 107 3.79549V0.745444C107 0.338771 106.676 -0.00012207 106.287 -0.00012207H66.0653C65.6766 -0.00012207 65.3528 0.338771 65.3528 0.745444C65.3528 0.813222 65.3528 0.881001 65.4176 0.94878L66.3891 3.99882C66.4539 4.20216 66.6482 4.40549 66.9073 4.40549H73.6433C74.032 4.40549 74.3558 4.74439 74.3558 5.15106V25.2813C74.3558 25.688 74.6797 26.0269 75.0683 26.0269H79.8613C80.2499 26.0269 80.5737 25.688 80.5737 25.2813V25.2136L79.2136 5.21884C79.2136 4.81217 79.4726 4.47327 79.8613 4.40549C79.8613 4.40549 79.8613 4.40549 79.926 4.40549H86.986C87.3746 4.40549 87.6984 4.74439 87.6984 5.15106C87.6984 5.28662 87.6984 5.42217 87.6337 5.48995L87.4393 5.9644C86.4678 8.13332 85.9496 10.5734 86.0144 12.9456C85.9496 15.3856 86.403 17.7579 87.4393 19.9946C88.3461 21.8924 89.7711 23.4513 91.5199 24.5358C93.463 25.6202 95.6651 26.1625 97.8673 26.0947H106.352C106.741 26.0947 107.065 25.7558 107.065 25.3491V12.7423C107.065 12.3356 106.741 11.9967 106.352 11.9967H102.077C101.689 11.9967 101.365 12.3356 101.365 12.7423C101.365 12.8101 101.365 12.8101 101.365 12.8778L102.531 20.6724C102.596 21.0791 102.336 21.4857 101.948 21.5535C101.883 21.5535 101.883 21.5535 101.818 21.5535H98.3207C96.9605 21.6213 95.6004 21.2824 94.3697 20.6046C93.3334 19.9268 92.4914 18.9779 91.9732 17.7579C91.3903 16.2668 91.0665 14.6401 91.1312 13.0134C91.0665 11.4545 91.3903 9.82779 91.9732 8.40444C92.4914 7.11664 93.3334 6.16774 94.3697 5.48995Z" />
</svg>