<svg width="192" height="192" viewBox="0 0 192 192" fill="none" xmlns="http://www.w3.org/2000/svg">
    <path d="M94.8921 112.608C94.8848 112.786 94.9347 112.961 95.0344 113.109C95.134 113.256 95.2783 113.368 95.446 113.428C99.6712 114.691 103.975 115.675 108.329 116.373C108.548 116.386 108.762 116.311 108.926 116.166C109.09 116.021 109.19 115.817 109.204 115.598C109.151 112.661 109.269 109.723 109.555 106.799C116.282 107.786 122.938 108.584 129.698 109.252C130.566 109.383 131.453 109.281 132.268 108.955C139.196 107.001 145.983 104.575 152.58 101.694C153.956 101.112 152.843 99.7738 151.498 100.31C145.121 102.955 138.593 105.218 131.948 107.087C131.232 107.357 130.452 107.407 129.707 107.233C123.521 106.692 117.356 105.958 111.212 105.085C122.407 99.0087 133.846 92.7975 146.041 88.9018C148.502 88.1146 148.153 85.0349 146.051 84.7604C135.915 83.3553 125.678 82.8029 115.449 83.1092C113.498 83.1917 111.553 83.3914 109.626 83.7072C96.7708 85.6695 80.4613 89.8724 69.1276 96.6413C68.1897 97.202 68.2204 97.4343 67.9285 98.6218C65.4469 108.742 64.4812 128.382 66.8889 141.974C67.0338 142.796 68.1945 142.527 68.1369 141.735C67.8412 137.991 67.4591 134.27 67.3266 130.518C66.9081 120.006 67.7187 109.482 69.742 99.1584C70.0165 97.7856 69.6613 98.1236 71.1263 97.3277C82.3372 91.2365 97.5743 87.0096 110.035 85.1031C111.939 84.8338 113.862 84.7176 115.785 84.7556C123.882 84.5579 131.983 84.8917 140.037 85.7549C127.226 88.0983 107.303 94.7184 96.4799 102.72C88.8076 101.352 81.2533 99.5952 73.6194 98.1888C72.7957 98.0362 72.6402 99.2036 73.3977 99.4368C80.6578 101.528 88.0293 103.21 95.4777 104.477C95.0245 107.162 94.8284 109.885 94.8921 112.608ZM98.4997 103.674C101.759 103.766 105.001 104.189 108.175 104.936C108.696 105.082 109.085 106.105 108.106 106.1C104.842 106.06 101.593 105.654 98.4191 104.891C97.3343 104.605 97.7365 103.688 98.4959 103.669L98.4997 103.674Z" fill="black"/>
    <path d="M76.5905 68.5997C76.9633 70.5642 77.5504 72.4819 78.3415 74.3184C78.4133 74.4563 78.5319 74.5641 78.6761 74.6225C78.8202 74.6808 78.9804 74.6859 79.128 74.6367C79.2755 74.5876 79.4007 74.4875 79.481 74.3544C79.5614 74.2212 79.5917 74.0638 79.5665 73.9104C78.9665 71.9837 78.4145 70.032 78.0382 68.2992C80.1868 67.7327 82.2008 66.7434 83.9626 65.3893C85.7244 64.0352 87.1985 62.3434 88.2986 60.4128C90.546 56.4355 90.8772 51.7104 90.665 47.2387C90.492 41.5307 89.2586 35.9048 87.0276 30.648C86.9586 30.4848 86.8285 30.3551 86.665 30.2867C86.5016 30.2183 86.3179 30.2166 86.1532 30.282C85.9885 30.3474 85.856 30.4746 85.784 30.6365C85.712 30.7984 85.7063 30.9821 85.7681 31.1482C87.2151 35.4401 88.2241 39.8674 88.7796 44.3626C89.203 48.6422 89.3556 53.233 87.858 57.335C86.9756 59.6773 85.5279 61.7651 83.6436 63.4127C81.7594 65.0603 79.4971 66.2165 77.058 66.7786C70.434 68.3146 64.2353 65.1158 60.6708 59.4586C60.2945 58.8605 59.2692 59.424 59.5812 60.0643C61.1525 63.1003 63.6443 65.5611 66.6997 67.0943C69.7551 68.6275 73.2173 69.1545 76.5905 68.5997Z" fill="black"/>
    <path d="M79.7758 46.2547C78.9718 44.6786 78.0186 43.1831 76.9294 41.7888C76.4734 41.256 75.4059 41.6976 75.7649 42.4243C76.6135 44.1408 77.7463 45.7075 78.6391 47.4019C78.9857 48.0586 79.1748 48.6816 78.6055 49.2653C77.9327 49.7712 77.1526 50.1157 76.3255 50.2723C76.1754 50.3356 76.0527 50.45 75.9791 50.5954C75.9056 50.7407 75.886 50.9074 75.924 51.0658C75.9619 51.2242 76.0548 51.364 76.1862 51.4602C76.3176 51.5565 76.4789 51.6029 76.6414 51.5914C77.7137 51.5468 78.7425 51.1553 79.5732 50.4758C81.0468 49.1251 80.5956 47.7341 79.7758 46.2547Z" fill="black"/>
    <path d="M69.1941 35.544C67.3279 35.2752 64.7291 37.3536 63.9035 38.8819C63.8127 39.017 63.7735 39.1802 63.793 39.3419C63.8125 39.5035 63.8894 39.6527 64.0097 39.7623C64.1301 39.872 64.2858 39.9347 64.4485 39.9391C64.6112 39.9435 64.7701 39.8892 64.8962 39.7862C67.1925 37.5062 68.1851 37.7069 69.6002 36.7977C69.7057 36.7054 69.7819 36.5841 69.8192 36.4489C69.8566 36.3137 69.8534 36.1705 69.8102 36.0371C69.767 35.9037 69.6856 35.7858 69.5761 35.6982C69.4666 35.6105 69.3338 35.5569 69.1941 35.544Z" fill="black"/>
    <path d="M84.2161 34.4007C83.6113 33.683 82.7794 33.1936 81.8584 33.0135C80.9086 32.7625 79.9043 32.8125 78.9841 33.1565C78.841 33.2275 78.7251 33.3434 78.654 33.4865C78.5829 33.6295 78.5607 33.792 78.5906 33.9489C78.6205 34.1058 78.701 34.2486 78.8197 34.3555C78.9385 34.4624 79.0889 34.5275 79.2481 34.5408C80.0231 34.3925 80.8202 34.4039 81.5905 34.5744C82.2201 34.7469 82.8201 35.0132 83.3704 35.3645C83.5011 35.4457 83.6565 35.4779 83.8087 35.4553C83.961 35.4327 84.1003 35.3568 84.2018 35.2411C84.3033 35.1254 84.3605 34.9774 84.3631 34.8235C84.3657 34.6696 84.3137 34.5198 84.2161 34.4007Z" fill="black"/>
    <path d="M81.2977 39.456C80.2523 40.1501 81.2776 43.463 82.6542 42.8784C83.1947 42.649 83.4011 41.8099 83.2302 41.0093C83.0785 40.2749 82.1157 38.9165 81.2977 39.456Z" fill="black"/>
    <path d="M69.9025 46.2912C71.0641 45.6413 70.0772 42.2774 68.5441 42.8189C68.2362 43.0018 67.9997 43.284 67.8734 43.6191C67.7471 43.9543 67.7385 44.3224 67.8491 44.663C68.0027 45.4713 69.0241 46.7846 69.9025 46.2912Z" fill="black"/>
    <path d="M78.9121 56.232C79.4622 55.7193 78.6471 54.9053 78.0557 55.2787C75.9841 56.5891 73.4382 57.6278 71.4231 55.6281C70.9915 55.0709 70.6381 54.4572 70.3729 53.8041C70.0522 53.2579 69.3217 53.5526 69.171 54.0528C68.8734 55.0416 69.5972 56.1523 70.2442 56.8272C72.649 59.3357 76.6081 58.3881 78.9121 56.232Z" fill="black"/>
    <path d="M120.602 162.461C120.72 162.344 120.788 162.186 120.792 162.02C120.795 161.854 120.734 161.693 120.622 161.571C120.509 161.449 120.353 161.376 120.188 161.366C120.022 161.357 119.859 161.413 119.733 161.521C109.545 170.353 95.786 167.197 84.6539 170.965C84.4741 171.018 84.3213 171.137 84.227 171.299C84.1328 171.461 84.1044 171.653 84.1477 171.835C84.191 172.017 84.3027 172.175 84.4596 172.278C84.6166 172.38 84.8068 172.418 84.9908 172.383C97.0849 169.901 111.98 171.085 120.602 162.461Z" fill="black"/>
    <path d="M107.984 162.144C113.648 162.271 121.328 159.546 123.607 154.376C123.675 154.225 123.681 154.053 123.625 153.898C123.568 153.742 123.454 153.615 123.305 153.542C123.156 153.47 122.985 153.457 122.828 153.508C122.671 153.559 122.539 153.669 122.461 153.815C121.074 156.002 119.021 157.684 116.605 158.615C113.732 159.69 110.746 160.433 107.705 160.831C106.892 160.961 107.267 162.128 107.984 162.144Z" fill="black"/>
    <path d="M107.393 156.768C109.472 157.056 113.921 155.109 115.846 154.123C118.566 152.775 121.018 150.944 123.082 148.717C123.197 148.593 123.259 148.43 123.257 148.26C123.254 148.091 123.187 147.929 123.068 147.809C122.95 147.688 122.789 147.617 122.62 147.612C122.451 147.606 122.286 147.666 122.16 147.779C116.016 153.05 113.121 153.654 107.25 155.579C107.137 155.641 107.046 155.735 106.987 155.85C106.928 155.964 106.905 156.094 106.921 156.221C106.936 156.349 106.989 156.47 107.073 156.567C107.158 156.664 107.269 156.734 107.393 156.768Z" fill="black"/>
    <path d="M119.871 140.564C120.309 139.858 119.311 139.278 118.815 139.892C113.094 146.878 109.821 147.043 105.489 149.279C104.778 149.646 105.241 150.579 105.942 150.511C109.593 150.151 116.64 145.789 119.871 140.564Z" fill="black"/>
    <path d="M95.735 144C93.3901 146.466 90.6681 148.543 87.671 150.154C86.9558 150.501 87.503 151.601 88.2278 151.392C91.4793 150.45 94.0618 147.893 96.4445 145.619C98.777 143.167 101.544 141.17 104.604 139.727C105.411 139.327 104.756 138.263 104.007 138.401C101.103 138.932 97.8432 141.984 95.735 144Z" fill="black"/>
    <path d="M179.482 97.4208C179.426 96.5827 178.117 96.527 178.138 97.4102C178.646 117.143 179.609 136.759 178.827 156.519C172.213 160.714 165.28 164.382 158.091 167.49C149.317 171.281 141.562 173.401 132.508 175.911C132.7 161.395 133.706 131.873 131.776 112.455C131.767 112.284 131.691 112.123 131.565 112.007C131.439 111.891 131.272 111.829 131.1 111.835C130.929 111.84 130.766 111.913 130.648 112.037C130.529 112.161 130.464 112.326 130.466 112.498C130.681 123.864 132.493 155.41 130.456 176.126C119.249 176.449 107.224 174.18 96.1987 172.409C95.4748 172.293 95.1215 173.507 95.8655 173.68C106.778 176.279 117.933 177.723 129.148 177.99C130.386 178.041 131.627 177.927 132.835 177.651C141.498 175.468 149.996 172.674 158.264 169.289C165.595 166.163 172.665 162.455 179.405 158.201C180.379 157.588 180.293 157.51 180.33 156.498C181.088 136.805 180.804 117.085 179.482 97.4208Z" fill="black"/>
    <path d="M164.847 150.528C166.134 150.334 167.397 150.005 168.616 149.548C168.801 151.173 168.895 152.808 168.898 154.444C168.898 156.179 168.13 155.272 167.163 154.761C167.038 154.708 166.9 154.693 166.767 154.718C166.634 154.742 166.51 154.805 166.412 154.899C166.314 154.993 166.246 155.113 166.216 155.245C166.185 155.378 166.194 155.516 166.241 155.643C166.505 156.176 166.932 156.61 167.461 156.881C167.99 157.152 168.592 157.246 169.178 157.149C170.491 156.845 170.878 155.692 170.968 154.478C171.088 152.533 171.079 150.582 170.939 148.639C172.501 147.949 174.006 147.137 175.439 146.208C175.589 146.112 175.704 145.971 175.768 145.804C175.833 145.638 175.842 145.456 175.796 145.284C175.011 141.874 171.131 140.931 168.227 142.204C166.824 142.827 165.634 143.847 164.803 145.138C163.972 146.429 163.536 147.934 163.549 149.469C163.602 150.344 164.064 150.607 164.847 150.528Z" fill="black"/>
    <path d="M54.4188 54.4733C54.3746 53.9693 54.3871 53.1725 53.6988 53.1706C51.1385 53.1648 49.4354 50.7369 49.3865 48.3312C49.3346 45.7526 51.4985 43.8355 53.8025 45.7546C53.9937 45.8778 54.2253 45.922 54.4485 45.8777C54.6716 45.8335 54.8689 45.7043 54.9986 45.5174C58.1717 41.5971 60.4216 37.0127 61.5813 32.1043C70.2972 32.5229 83.3397 31.105 89.7257 24.7296C93.1375 21.3245 95.8697 15.0509 92.2044 10.8576C85.2098 2.84928 71.0527 6.88704 64.3356 13.6848C63.7596 5.07264 47.1813 5.97312 45.9036 24.7622C40.7052 17.7955 36.1221 24.7258 36.6425 31.5926C37.445 42.1718 45.2825 53.8214 53.5701 60.3293C54.2652 64.9766 55.2741 70.6723 57.0617 74.9213C57.1306 75.0581 57.246 75.1659 57.3872 75.2255C57.5284 75.285 57.6862 75.2923 57.8323 75.2461C57.9784 75.1999 58.1033 75.1032 58.1846 74.9733C58.2659 74.8435 58.2983 74.6889 58.2761 74.5373C57.0693 69.0422 55.3922 65.4221 54.4188 54.4733ZM68.2082 15.36C73.1724 10.6042 82.5343 9.54816 86.5442 11.6755C86.6781 11.7404 86.785 11.8502 86.8463 11.9859C86.9076 12.1215 86.9193 12.2743 86.8794 12.4177C86.8395 12.5611 86.7506 12.6859 86.6281 12.7705C86.5056 12.855 86.3574 12.8939 86.2092 12.8803C83.2024 12.6214 80.1747 12.7524 77.2015 13.2701C74.2732 13.9254 71.4481 14.9774 68.8044 16.3968C68.1343 16.7251 67.7599 15.7853 68.2082 15.36Z" fill="black"/>
    <path d="M105.504 83.232C100.059 79.7194 91.6244 76.2691 82.7588 74.1322C80.4711 81.0912 62.4299 83.0304 52.8164 73.8538C31.8212 81.4349 0.877543 108.944 5.21002 139.631C8.74186 164.648 49.5255 185.566 81.434 185.566C81.8929 172.95 83.8571 155.821 87.1383 148.069C69.5521 146.389 49.2395 137.773 35.9972 126.823C35.8745 126.716 35.7977 126.567 35.7832 126.405C35.7686 126.243 35.8173 126.082 35.919 125.956C36.0208 125.829 36.1676 125.747 36.3287 125.727C36.4897 125.706 36.6524 125.749 36.7825 125.846C40.2506 128.382 43.847 130.738 47.5575 132.903C48.1019 126.775 52.2971 116.135 54.9716 110.939C55.043 110.788 55.1714 110.672 55.3285 110.616C55.4856 110.559 55.6585 110.568 55.8092 110.64C55.9599 110.711 56.0761 110.839 56.1322 110.996C56.1883 111.153 56.1797 111.326 56.1083 111.477C52.1857 120.247 51.6923 125.528 49.1963 133.823C54.1764 136.588 59.3808 138.927 64.754 140.818C62.9483 131.811 63.026 102.327 66.482 96.2678C67.8788 93.8237 87.1854 85.5024 105.504 83.232Z" fill="#98A2B3"/>
    <path d="M173.874 65.8215C162.079 60.2007 141.761 66.1834 142.233 87.0903C142.543 100.877 153.818 109.255 165.953 108.564C176.863 107.942 185.95 100.187 187.087 89.2426C187.475 84.4657 186.424 79.682 184.069 75.5078C181.714 71.3335 178.163 67.9599 173.874 65.8215ZM176.054 79.7539C170.033 84.7959 165.886 89.2359 161.864 96.0739C161.786 96.1708 161.687 96.2487 161.574 96.3016C161.462 96.3545 161.339 96.3811 161.215 96.3794C161.09 96.3776 160.968 96.3475 160.857 96.2915C160.746 96.2354 160.65 96.1547 160.574 96.0557C157.99 93.0067 155.126 90.2067 152.019 87.6922C151.41 87.168 151.953 86.4442 152.811 86.6621C155.66 87.5011 158.279 88.983 160.465 90.9936C163.591 85.776 169.82 80.8176 175.254 78.1987C175.456 78.1199 175.681 78.1188 175.884 78.1958C176.088 78.2728 176.255 78.4224 176.355 78.6157C176.454 78.809 176.479 79.0322 176.423 79.2424C176.368 79.4527 176.236 79.6349 176.054 79.7539Z" fill="#98A2B3"/>
</svg>