<svg width="35" height="34" viewBox="0 0 35 34" fill="none" xmlns="http://www.w3.org/2000/svg">
    <path d="M21.4732 4.78577C23.6968 4.78577 25.4994 2.97189 25.4994 0.734375H27.3577C27.3577 2.97189 29.1603 4.78577 31.3839 4.78577V6.65564C29.1603 6.65564 27.3577 8.46952 27.3577 10.707H25.4994C25.4994 8.46952 23.6968 6.65564 21.4732 6.65564V4.78577ZM0 15.6934C5.47354 15.6934 9.91071 11.2285 9.91071 5.7207H13.2143C13.2143 11.2285 17.6515 15.6934 23.125 15.6934V19.0176C17.6515 19.0176 13.2143 23.4825 13.2143 28.9902H9.91071C9.91071 23.4825 5.47354 19.0176 0 19.0176V15.6934ZM26.8415 20.6797C26.8415 23.663 24.438 26.0815 21.4732 26.0815V28.5747C24.438 28.5747 26.8415 30.9932 26.8415 33.9766H29.3192C29.3192 30.9932 31.7227 28.5747 34.6875 28.5747V26.0815C31.7227 26.0815 29.3192 23.663 29.3192 20.6797H26.8415Z" fill="url(#paint0_linear_1_1703)"/>
    <defs>
        <linearGradient id="paint0_linear_1_1703" x1="59.9805" y1="33.9766" x2="-4.72674" y2="20.7012" gradientUnits="userSpaceOnUse">
            <stop stop-color="#F9944A"/>
            <stop offset="1" stop-color="#F9D84A"/>
        </linearGradient>
    </defs>
</svg>